<svg width="163" height="55" viewBox="0 0 163 55" fill="none" xmlns="http://www.w3.org/2000/svg">
<path d="M0 37.8408C0 38.6568 0.680315 39.3662 1.50385 39.3662C2.3632 39.3662 3.04352 38.6568 3.04352 37.8408V17.0525H7.01799C9.73925 17.0525 11.4937 18.9327 11.4937 21.345C11.4937 23.7218 9.73925 25.602 7.01799 25.602H6.05122C5.26348 25.602 4.65479 26.2405 4.65479 27.021C4.65479 27.8015 5.26348 28.4045 6.05122 28.4045H7.1254C11.6728 28.4045 14.6447 25.2472 14.6447 21.345C14.6447 17.4073 11.6728 14.25 7.1254 14.25H1.50385C0.680315 14.25 0 14.924 0 15.74V37.8408Z" fill="black"/>
<path d="M16.8889 37.9118C16.8889 38.7278 17.4976 39.3663 18.3212 39.3663C19.1089 39.3663 19.7534 38.7278 19.7534 37.9118V28.298C19.7534 24.9989 21.6153 23.2606 24.265 23.2606C24.9811 23.2606 25.5897 22.6576 25.5897 21.9481C25.5897 21.2031 24.9811 20.6355 24.265 20.6355C19.825 20.6355 16.8889 23.7218 16.8889 28.298V37.9118Z" fill="black"/>
<path d="M36.5677 39.4373C41.9386 39.4373 45.9848 35.2865 45.9848 30.0363C45.9848 24.786 41.9386 20.6355 36.5677 20.6355C31.1968 20.6355 27.115 24.786 27.115 30.0363C27.115 35.2865 31.1968 39.4373 36.5677 39.4373ZM36.5677 36.812C32.8797 36.812 30.0153 33.7613 30.0153 30.0363C30.0153 26.276 32.8797 23.2606 36.5677 23.2606C40.2557 23.2606 43.0844 26.276 43.0844 30.0363C43.0844 33.7613 40.2557 36.812 36.5677 36.812Z" fill="black"/>
<path d="M50.2905 38.302C50.2905 41.601 48.393 43.3748 45.5643 43.3748C44.8482 43.3748 44.2395 43.978 44.2395 44.6875C44.2395 45.4325 44.8123 46 45.5643 46C50.0042 46 53.1551 43.0555 53.1551 38.302V22.1255C53.1551 21.345 52.5105 20.7065 51.7228 20.7065C50.8992 20.7065 50.2905 21.345 50.2905 22.1255V38.302ZM51.7228 18.3651C52.6897 18.3651 53.513 17.5492 53.513 16.5914C53.513 15.5981 52.6897 14.8176 51.7228 14.8176C50.7203 14.8176 49.9326 15.5981 49.9326 16.5914C49.9326 17.5492 50.7203 18.3651 51.7228 18.3651Z" fill="black"/>
<path d="M66.6041 39.4373C69.6118 39.4373 72.0823 38.1245 73.5863 36.3508C73.8368 36.067 74.016 35.6768 74.016 35.393C74.016 34.6125 73.4073 34.045 72.5837 34.045C72.0826 34.045 71.7601 34.3288 71.3663 34.6835C70.2564 35.9253 68.6451 36.812 66.6041 36.812C62.9161 36.812 60.0517 33.7968 60.0517 30.0363C60.0517 26.2405 62.9518 23.2606 66.6041 23.2606C67.7856 23.2606 69.1106 23.6154 70.0415 24.3958L64.4557 30.9233C64.2052 31.1715 64.1335 31.4908 64.1335 31.81C64.1335 32.555 64.7063 33.0873 65.4942 33.0873C65.8881 33.0873 66.2103 32.9453 66.4968 32.626L72.8702 25.0698C73.2281 24.6796 73.3357 24.3603 73.3357 24.0056C73.3357 23.5799 73.1208 23.1897 72.7986 22.9059C71.4022 21.6288 69.2179 20.6355 66.6041 20.6355C61.2332 20.6355 57.1514 24.786 57.1514 30.0363C57.1514 35.2865 61.2691 39.4373 66.6041 39.4373Z" fill="black"/>
<path d="M85.941 39.4373C88.9487 39.4373 91.4192 38.1245 92.9232 36.3508C93.1738 36.067 93.3527 35.6768 93.3527 35.393C93.3527 34.6125 92.744 34.045 91.9206 34.045C91.3835 34.045 91.0611 34.3643 90.7032 34.6835C89.5931 35.9253 87.9461 36.812 85.941 36.812C82.2887 36.812 79.3884 33.7968 79.3884 30.0363C79.3884 26.2405 82.2887 23.2606 85.941 23.2606C87.9818 23.2606 89.5931 24.1475 90.7032 25.389C91.097 25.7085 91.3835 25.9923 91.9206 25.9923C92.744 25.9923 93.3527 25.46 93.3527 24.6796C93.3527 24.3603 93.1738 23.9701 92.9232 23.6863C91.4192 21.9126 88.9127 20.6355 85.941 20.6355C80.5701 20.6355 76.488 24.786 76.488 30.0363C76.488 35.2865 80.5701 39.4373 85.941 39.4373Z" fill="black"/>
<path d="M96.2503 23.6154H98.1481V31.6328C98.1481 36.3863 101.299 39.3663 105.739 39.3663C106.455 39.3663 107.064 38.7633 107.064 38.0183C107.064 37.3088 106.455 36.7055 105.739 36.7055C102.91 36.7055 101.012 34.9318 101.012 31.6328V23.6154H105.739C106.455 23.6154 107.064 23.0123 107.064 22.3028C107.064 21.5579 106.455 20.9903 105.739 20.9903H101.012V17.7975C101.012 16.9816 100.404 16.3785 99.5801 16.3785C98.7925 16.3785 98.1481 16.9816 98.1481 17.7975V20.9903H96.2503C95.5343 20.9903 94.9255 21.5579 94.9255 22.3028C94.9255 23.0123 95.5343 23.6154 96.2503 23.6154Z" fill="black"/>
<path d="M123.87 8.38026C121.642 6.17956 118.029 6.17956 115.801 8.38026C113.573 10.581 113.573 14.149 115.801 16.3497L146.506 46.6783C148.735 48.879 152.347 48.879 154.575 46.6783C156.803 44.4775 156.803 40.9095 154.575 38.7088L123.87 8.38026Z" fill="#304462"/>
<path fill-rule="evenodd" clip-rule="evenodd" d="M115.801 8.38026C118.029 6.17956 121.642 6.17956 123.87 8.38026L150.818 34.9983C148.59 37.1988 144.978 37.1988 142.75 34.9983L123.87 16.3497C121.642 14.149 118.029 14.149 115.801 16.3497C113.573 14.149 113.573 10.581 115.801 8.38026Z" fill="#FEB80A"/>
<path fill-rule="evenodd" clip-rule="evenodd" d="M157.341 3.98475C157.786 3.5446 158.509 3.5446 158.955 3.98475C159.4 4.4249 159.4 5.1385 158.955 5.57865L151.935 12.5121L148.466 15.9389L147.336 17.0546C146.89 17.4948 146.89 18.2084 147.336 18.6485C147.782 19.0886 148.504 19.0886 148.95 18.6485L153.549 14.106L155.405 12.2729C155.85 11.8328 156.573 11.8328 157.018 12.2729C157.464 12.7132 157.464 13.4267 157.018 13.8669L155.162 15.6998L146.529 24.2271L143.221 27.4945L127.246 43.2738L127.246 43.274L117.644 52.7578C117.199 53.1978 116.476 53.1978 116.031 52.7578C115.585 52.3175 115.585 51.604 116.031 51.1638L125.632 41.6803L125.633 41.6793L125.953 41.3635C126.398 40.9235 126.398 40.2098 125.953 39.7695C125.507 39.3295 124.784 39.3295 124.339 39.7695L123.454 40.6435L123.453 40.644L119.097 44.9478L112.964 51.0045C112.519 51.4445 111.796 51.4445 111.351 51.0045C110.905 50.5643 110.905 49.8508 111.351 49.4105L117.483 43.3538L121.282 39.6015C121.727 39.1615 121.727 38.4478 121.282 38.0078C120.836 37.5675 120.114 37.5675 119.668 38.0078L115.869 41.76C115.424 42.2 114.701 42.2 114.256 41.76C113.81 41.3198 113.81 40.606 114.256 40.166L122.566 31.9575L141.043 13.7074L147.094 7.7304L151.532 3.3472C151.977 2.90705 152.7 2.90705 153.145 3.3472C153.591 3.78733 153.591 4.50095 153.145 4.94108L148.708 9.32428L142.657 15.3013L142.414 15.5405C141.969 15.9806 141.969 16.6942 142.414 17.1343C142.86 17.5745 143.582 17.5745 144.028 17.1343L146.852 14.345L150.322 10.9182L157.341 3.98475Z" fill="#00ADDC"/>
<path fill-rule="evenodd" clip-rule="evenodd" d="M158.955 3.98475C158.509 3.5446 157.786 3.5446 157.341 3.98475L150.322 10.9182L147.654 13.5527C147.969 13.7586 148.269 13.9988 148.547 14.273C148.821 14.5446 149.062 14.837 149.269 15.1451L151.935 12.5121L158.955 5.57865C159.4 5.1385 159.4 4.4249 158.955 3.98475ZM150.159 17.4537C150.394 19.0737 149.915 20.7754 148.721 22.0621L155.162 15.6998L157.018 13.8669C157.464 13.4267 157.464 12.7132 157.018 12.2729C156.573 11.8328 155.85 11.8328 155.405 12.2729L153.549 14.106L150.159 17.4537ZM121.594 48.8565C121.021 48.2893 120.595 47.6313 120.317 46.9295L116.031 51.1638C115.585 51.604 115.585 52.3175 116.031 52.7578C116.476 53.1978 117.199 53.1978 117.644 52.7578L121.594 48.8565ZM119.985 44.07C120.154 42.907 120.692 41.7858 121.598 40.891L140.478 22.2424C142.706 20.0418 142.706 16.4736 140.478 14.273C141.796 12.9711 143.599 12.4394 145.312 12.6779L148.708 9.32428L153.145 4.94108C153.591 4.50095 153.591 3.78733 153.145 3.3472C152.7 2.90705 151.977 2.90705 151.532 3.3472L147.094 7.7304L141.043 13.7074L122.566 31.9575L114.256 40.166C113.81 40.606 113.81 41.3198 114.256 41.76C114.701 42.2 115.424 42.2 115.869 41.76L119.668 38.0078C120.114 37.5675 120.836 37.5675 121.282 38.0078C121.727 38.4478 121.727 39.1615 121.282 39.6015L117.483 43.3538L111.351 49.4105C110.905 49.8508 110.905 50.5643 111.351 51.0045C111.796 51.4445 112.519 51.4445 112.964 51.0045L119.097 44.9478L119.985 44.07Z" fill="#7FD13B"/>
<path fill-rule="evenodd" clip-rule="evenodd" d="M157.341 3.98475C157.786 3.5446 158.509 3.5446 158.955 3.98475C159.4 4.4249 159.4 5.1385 158.955 5.57865L151.935 12.5121L149.269 15.1451C149.062 14.837 148.821 14.5446 148.547 14.273C148.269 13.9988 147.969 13.7586 147.654 13.5527L150.322 10.9182L157.341 3.98475ZM148.721 22.0621C149.915 20.7754 150.395 19.0737 150.159 17.4537L153.549 14.106L155.405 12.2729C155.85 11.8328 156.573 11.8328 157.018 12.2729C157.464 12.7132 157.464 13.4267 157.018 13.8669L155.162 15.6998L148.721 22.0621ZM120.317 46.9295C120.595 47.6313 121.021 48.2893 121.594 48.8565L117.644 52.7578C117.199 53.1978 116.476 53.1978 116.031 52.7578C115.585 52.3175 115.585 51.604 116.031 51.1638L120.317 46.9295ZM121.598 40.891C120.692 41.7858 120.154 42.907 119.985 44.07L119.097 44.9478L112.964 51.0045C112.52 51.4433 111.801 51.4445 111.355 51.0083L121.598 40.891ZM131.764 30.8493L140.478 22.2424C142.706 20.0418 142.706 16.4736 140.478 14.273C141.796 12.9711 143.599 12.4394 145.312 12.6779L148.708 9.32428L153.145 4.94108C153.591 4.50095 153.591 3.78733 153.145 3.3472C152.7 2.90705 151.977 2.90705 151.532 3.3472L147.094 7.7304L141.043 13.7074L122.566 31.9575L114.256 40.166C114.229 40.1925 114.203 40.22 114.18 40.2485L123.696 30.8493C125.924 28.6488 129.536 28.6488 131.764 30.8493Z" fill="#EA157A"/>
</svg>
